<svg width="80" height="76" viewBox="0 0 80 76" fill="none" xmlns="http://www.w3.org/2000/svg">
<path fill-rule="evenodd" clip-rule="evenodd" d="M30.925 4.81589C22.4695 1.29904 14.0603 0.743993 8.10381 4.87199C-1.84389 11.7651 -1.97962 29.651 4.15303 45.2222C2.79316 36.6204 5.24295 28.4232 10.9255 21.6064C16.3351 15.1158 23.3259 9.2795 30.925 4.81589ZM46.6644 41.6845C48.9038 41.6845 50.5291 43.4985 50.3111 45.728C50.093 47.9568 48.1018 49.7707 45.8624 49.7707H38.4906L40.9178 25.3759H47.438C49.6574 25.3759 51.2919 27.1792 51.064 29.4088C50.8459 31.6379 48.8646 33.441 46.6355 33.441H41.6116L40.7991 41.6845H46.6644ZM63.8087 65.6544C71.6104 56.2944 77.4046 43.6981 79.3283 31.6588C80.7751 22.6102 80.3902 10.6827 72.7378 4.3089C65.0846 -2.06565 53.2776 -0.290592 44.6364 2.76402C33.1395 6.82776 21.7899 14.7968 13.9875 24.1579C2.35334 38.1157 8.40122 55.4614 21.2081 66.1268C34.0135 76.7911 52.1764 79.6095 63.8087 65.6544ZM49.7063 16.766H31.9313L27.7993 58.3806H37.6384H46.427C53.3133 58.3806 59.4468 52.7924 60.1301 45.9061C60.4771 42.4679 59.3872 39.3467 57.3463 37.0877C59.3078 34.947 60.6252 32.2029 60.9226 29.2201C61.6064 22.3436 56.5828 16.766 49.7063 16.766Z" fill="white"/>
</svg>
