<svg width="509" height="164" viewBox="0 0 509 164" fill="none" xmlns="http://www.w3.org/2000/svg">
<path fill-rule="evenodd" clip-rule="evenodd" d="M123.105 142.197C156.87 101.688 170.97 35.0506 140.796 9.91714C110.621 -15.2163 47.5986 10.6719 13.8327 51.1812C-38.4963 113.961 70.7905 204.96 123.105 142.197ZM206.769 38.4843C182.959 38.4843 161.667 57.8479 159.313 81.6574C156.938 105.466 174.394 124.851 198.203 124.851C222.012 124.851 243.305 105.466 245.659 81.6574C248.034 57.8479 230.578 38.4843 206.769 38.4843ZM161.036 139.55V145.251H168.108V139.55H169.699V152.508H168.108V146.732H161.036V152.508H159.444V139.55H161.036ZM178.458 151.212C178.088 151.693 177.616 152.06 177.042 152.313C176.468 152.566 175.83 152.693 175.127 152.693C174.09 152.693 173.269 152.446 172.665 151.952C172.06 151.459 171.758 150.792 171.758 149.953C171.758 149.102 172.084 148.429 172.739 147.936C173.393 147.442 174.293 147.195 175.441 147.195H178.44V146.677C178.44 145.974 178.215 145.424 177.764 145.029C177.314 144.634 176.682 144.437 175.866 144.437C175.213 144.437 174.648 144.573 174.173 144.844C173.698 145.116 173.343 145.498 173.109 145.992L171.887 145.363C172.195 144.671 172.717 144.116 173.451 143.696C174.185 143.277 175.034 143.067 175.997 143.067C176.762 143.067 177.44 143.212 178.033 143.502C178.625 143.792 179.082 144.202 179.402 144.733C179.724 145.264 179.884 145.875 179.884 146.566V152.508H178.458V151.212ZM173.276 149.897C173.276 150.379 173.451 150.746 173.803 150.999C174.154 151.252 174.645 151.379 175.275 151.379C176.225 151.379 176.99 151.119 177.57 150.601C178.15 150.083 178.44 149.391 178.44 148.528V148.509H175.497C174.744 148.509 174.185 148.62 173.821 148.842C173.457 149.065 173.276 149.416 173.276 149.897ZM182.682 154.507H183.774C184.231 154.507 184.539 154.297 184.7 153.878L185.07 152.934L180.868 143.252H182.46L185.829 151.175L188.809 143.252H190.309L186.052 154.248C185.644 155.321 184.978 155.858 184.052 155.858H182.682V154.507ZM195.643 152.693C194.718 152.693 193.879 152.486 193.126 152.073C192.373 151.659 191.784 151.088 191.358 150.36C190.933 149.632 190.719 148.824 190.719 147.936C190.719 147.059 190.935 146.248 191.367 145.501C191.799 144.755 192.395 144.162 193.154 143.724C193.913 143.286 194.755 143.067 195.68 143.067C196.606 143.067 197.445 143.274 198.198 143.687C198.95 144.101 199.54 144.672 199.966 145.4C200.391 146.128 200.604 146.936 200.604 147.825C200.604 148.701 200.385 149.512 199.947 150.258C199.509 151.005 198.91 151.597 198.151 152.036C197.392 152.474 196.556 152.693 195.643 152.693ZM195.662 151.304C196.328 151.304 196.92 151.159 197.439 150.87C197.957 150.58 198.358 150.175 198.642 149.657C198.926 149.138 199.067 148.546 199.067 147.88C199.067 147.214 198.926 146.621 198.642 146.103C198.358 145.585 197.957 145.18 197.439 144.891C196.92 144.6 196.328 144.456 195.662 144.456C194.995 144.456 194.403 144.6 193.885 144.891C193.367 145.18 192.966 145.585 192.682 146.103C192.398 146.621 192.256 147.214 192.256 147.88C192.256 148.546 192.398 149.138 192.682 149.657C192.966 150.175 193.367 150.58 193.885 150.87C194.403 151.159 194.995 151.304 195.662 151.304ZM205.402 152.508C203.859 152.508 203.088 151.743 203.088 150.212V144.604H201.181V143.252H203.106V140.846H204.55V143.252H207.531V144.604H204.55V150.175C204.55 150.496 204.637 150.74 204.809 150.907C204.982 151.073 205.229 151.156 205.55 151.156H207.179V152.508H205.402ZM215.864 147.065C215.864 146.239 215.648 145.594 215.216 145.131C214.784 144.668 214.179 144.437 213.402 144.437C212.575 144.437 211.905 144.715 211.394 145.27C210.882 145.825 210.625 146.547 210.625 147.435V152.508H209.144V143.252H210.588V144.585C210.946 144.104 211.396 143.73 211.94 143.465C212.483 143.2 213.093 143.067 213.772 143.067C214.908 143.067 215.79 143.416 216.419 144.113C217.049 144.811 217.363 145.788 217.363 147.047V152.508H215.864V147.065ZM221.18 143.252V152.508H219.717V143.252H221.18ZM220.44 141.66C220.131 141.66 219.872 141.559 219.662 141.355C219.452 141.151 219.347 140.895 219.347 140.587C219.347 140.278 219.452 140.019 219.662 139.81C219.872 139.599 220.131 139.495 220.44 139.495C220.748 139.495 221.007 139.599 221.217 139.81C221.427 140.019 221.532 140.278 221.532 140.587C221.532 140.895 221.427 141.151 221.217 141.355C221.007 141.559 220.748 141.66 220.44 141.66ZM230.327 147.065C230.327 146.239 230.111 145.594 229.68 145.131C229.248 144.668 228.643 144.437 227.866 144.437C227.039 144.437 226.369 144.715 225.857 145.27C225.345 145.825 225.089 146.547 225.089 147.435V152.508H223.608V143.252H225.052V144.585C225.41 144.104 225.86 143.73 226.403 143.465C226.946 143.2 227.557 143.067 228.236 143.067C229.371 143.067 230.254 143.416 230.883 144.113C231.512 144.811 231.827 145.788 231.827 147.047V152.508H230.327V147.065ZM238.42 156.043C237.47 156.043 236.625 155.861 235.884 155.497C235.143 155.133 234.57 154.612 234.163 153.933L235.347 153.211C235.631 153.692 236.035 154.059 236.56 154.312C237.084 154.566 237.698 154.692 238.402 154.692C239.438 154.692 240.247 154.436 240.826 153.923C241.406 153.412 241.697 152.711 241.697 151.823V150.601C241.265 151.082 240.749 151.459 240.151 151.731C239.552 152.002 238.907 152.138 238.217 152.138C237.34 152.138 236.551 151.943 235.847 151.554C235.143 151.165 234.588 150.629 234.181 149.944C233.774 149.259 233.57 148.497 233.57 147.658C233.57 146.831 233.777 146.066 234.191 145.363C234.604 144.659 235.165 144.101 235.875 143.687C236.584 143.274 237.371 143.067 238.235 143.067C238.926 143.067 239.571 143.194 240.169 143.447C240.768 143.7 241.277 144.055 241.697 144.511V143.252H243.141V151.786C243.141 152.612 242.949 153.347 242.566 153.989C242.184 154.63 241.635 155.133 240.919 155.497C240.203 155.861 239.37 156.043 238.42 156.043ZM238.42 150.805C239.407 150.805 240.209 150.512 240.826 149.925C241.443 149.339 241.752 148.577 241.752 147.639C241.752 146.689 241.443 145.921 240.826 145.335C240.209 144.749 239.407 144.456 238.42 144.456C237.433 144.456 236.628 144.749 236.004 145.335C235.381 145.921 235.07 146.689 235.07 147.639C235.07 148.577 235.381 149.339 236.004 149.925C236.628 150.512 237.433 150.805 238.42 150.805ZM254.565 143.067C255.428 143.067 256.212 143.274 256.915 143.687C257.619 144.101 258.174 144.672 258.581 145.4C258.989 146.128 259.193 146.936 259.193 147.825C259.193 148.701 258.989 149.512 258.581 150.258C258.174 151.005 257.613 151.597 256.897 152.036C256.181 152.474 255.391 152.693 254.528 152.693C253.812 152.693 253.155 152.557 252.556 152.286C251.958 152.014 251.443 151.631 251.011 151.138V152.508H249.586V139.458H251.048V144.678C251.48 144.172 251.998 143.777 252.603 143.493C253.207 143.209 253.861 143.067 254.565 143.067ZM254.343 144.456C253.343 144.456 252.532 144.774 251.909 145.409C251.285 146.044 250.974 146.868 250.974 147.88C250.974 148.892 251.285 149.716 251.909 150.351C252.532 150.987 253.343 151.304 254.343 151.304C254.997 151.304 255.577 151.159 256.083 150.87C256.589 150.58 256.983 150.175 257.268 149.657C257.552 149.138 257.693 148.546 257.693 147.88C257.693 147.214 257.552 146.621 257.268 146.103C256.983 145.585 256.589 145.18 256.083 144.891C255.577 144.6 254.997 144.456 254.343 144.456ZM267.229 151.212C266.859 151.693 266.387 152.06 265.814 152.313C265.24 152.566 264.601 152.693 263.898 152.693C262.861 152.693 262.04 152.446 261.436 151.952C260.831 151.459 260.529 150.792 260.529 149.953C260.529 149.102 260.855 148.429 261.51 147.936C262.164 147.442 263.064 147.195 264.213 147.195H267.211V146.677C267.211 145.974 266.986 145.424 266.535 145.029C266.085 144.634 265.453 144.437 264.638 144.437C263.984 144.437 263.419 144.573 262.944 144.844C262.469 145.116 262.114 145.498 261.88 145.992L260.658 145.363C260.967 144.671 261.488 144.116 262.223 143.696C262.957 143.277 263.805 143.067 264.768 143.067C265.532 143.067 266.211 143.212 266.804 143.502C267.396 143.792 267.853 144.202 268.173 144.733C268.494 145.264 268.655 145.875 268.655 146.566V152.508H267.229V151.212ZM262.046 149.897C262.046 150.379 262.223 150.746 262.574 150.999C262.926 151.252 263.416 151.379 264.045 151.379C264.996 151.379 265.761 151.119 266.341 150.601C266.921 150.083 267.211 149.391 267.211 148.528V148.509H264.268C263.515 148.509 262.957 148.62 262.592 148.842C262.229 149.065 262.046 149.416 262.046 149.897ZM271.027 143.252H272.472V144.567C272.829 144.11 273.246 143.758 273.721 143.512C274.196 143.265 274.717 143.141 275.285 143.141L276.155 143.16V144.585H275.118C274.279 144.585 273.634 144.838 273.184 145.344C272.734 145.85 272.509 146.578 272.509 147.528V152.508H271.027V143.252ZM281.73 152.693C280.792 152.693 279.953 152.489 279.213 152.082C278.473 151.675 277.896 151.104 277.482 150.37C277.069 149.636 276.862 148.806 276.862 147.88C276.862 146.967 277.072 146.143 277.492 145.409C277.911 144.675 278.491 144.101 279.232 143.687C279.972 143.274 280.805 143.067 281.73 143.067C282.705 143.067 283.551 143.283 284.266 143.715C284.982 144.147 285.519 144.764 285.877 145.566L284.544 146.195C284.297 145.64 283.927 145.208 283.433 144.9C282.94 144.591 282.366 144.437 281.712 144.437C281.07 144.437 280.496 144.582 279.99 144.872C279.484 145.162 279.093 145.566 278.815 146.084C278.537 146.603 278.399 147.195 278.399 147.862C278.399 148.515 278.543 149.108 278.833 149.638C279.124 150.169 279.525 150.583 280.037 150.879C280.549 151.175 281.132 151.323 281.786 151.323C282.44 151.323 283.017 151.175 283.517 150.879C284.016 150.583 284.39 150.169 284.637 149.638L285.914 150.212C285.556 150.99 285.007 151.597 284.266 152.036C283.526 152.474 282.68 152.693 281.73 152.693ZM294.321 147.065C294.321 146.239 294.105 145.594 293.673 145.131C293.242 144.668 292.636 144.437 291.859 144.437C291.032 144.437 290.363 144.715 289.851 145.27C289.339 145.825 289.083 146.547 289.083 147.435V152.508H287.602V139.458H289.083V144.548C289.44 144.079 289.888 143.715 290.425 143.456C290.961 143.197 291.563 143.067 292.229 143.067C293.364 143.067 294.247 143.416 294.877 144.113C295.506 144.811 295.821 145.788 295.821 147.047V152.508H294.321V147.065ZM304.339 151.212C303.969 151.693 303.496 152.06 302.923 152.313C302.349 152.566 301.71 152.693 301.007 152.693C299.97 152.693 299.149 152.446 298.545 151.952C297.94 151.459 297.638 150.792 297.638 149.953C297.638 149.102 297.965 148.429 298.619 147.936C299.273 147.442 300.173 147.195 301.322 147.195H304.32V146.677C304.32 145.974 304.095 145.424 303.645 145.029C303.194 144.634 302.562 144.437 301.747 144.437C301.093 144.437 300.528 144.573 300.053 144.844C299.578 145.116 299.224 145.498 298.989 145.992L297.767 145.363C298.076 144.671 298.597 144.116 299.332 143.696C300.066 143.277 300.914 143.067 301.877 143.067C302.642 143.067 303.321 143.212 303.913 143.502C304.505 143.792 304.962 144.202 305.283 144.733C305.604 145.264 305.764 145.875 305.764 146.566V152.508H304.339V151.212ZM299.156 149.897C299.156 150.379 299.332 150.746 299.683 150.999C300.035 151.252 300.525 151.379 301.155 151.379C302.105 151.379 302.87 151.119 303.45 150.601C304.03 150.083 304.32 149.391 304.32 148.528V148.509H301.377C300.624 148.509 300.066 148.62 299.702 148.842C299.337 149.065 299.156 149.416 299.156 149.897ZM311.191 143.252H312.783L315.967 150.916L319.132 143.252H320.668L316.763 152.508H315.097L311.191 143.252ZM327.78 151.212C327.41 151.693 326.938 152.06 326.364 152.313C325.79 152.566 325.151 152.693 324.448 152.693C323.412 152.693 322.591 152.446 321.986 151.952C321.382 151.459 321.079 150.792 321.079 149.953C321.079 149.102 321.406 148.429 322.06 147.936C322.715 147.442 323.615 147.195 324.763 147.195H327.762V146.677C327.762 145.974 327.536 145.424 327.086 145.029C326.635 144.634 326.003 144.437 325.189 144.437C324.534 144.437 323.97 144.573 323.495 144.844C323.02 145.116 322.665 145.498 322.43 145.992L321.209 145.363C321.517 144.671 322.038 144.116 322.773 143.696C323.507 143.277 324.356 143.067 325.318 143.067C326.083 143.067 326.762 143.212 327.354 143.502C327.947 143.792 328.403 144.202 328.724 144.733C329.045 145.264 329.205 145.875 329.205 146.566V152.508H327.78V151.212ZM322.597 149.897C322.597 150.379 322.773 150.746 323.125 150.999C323.476 151.252 323.967 151.379 324.596 151.379C325.546 151.379 326.312 151.119 326.891 150.601C327.472 150.083 327.762 149.391 327.762 148.528V148.509H324.818C324.065 148.509 323.507 148.62 323.143 148.842C322.779 149.065 322.597 149.416 322.597 149.897ZM336.299 144.604H330.949V143.252H338.057V144.493L332.467 151.156H338.223V152.508H330.708V151.267L336.299 144.604ZM341.374 143.252V152.508H339.911V143.252H341.374ZM340.633 141.66C340.325 141.66 340.065 141.559 339.856 141.355C339.646 141.151 339.541 140.895 339.541 140.587C339.541 140.278 339.646 140.019 339.856 139.81C340.065 139.599 340.325 139.495 340.633 139.495C340.942 139.495 341.201 139.599 341.411 139.81C341.621 140.019 341.726 140.278 341.726 140.587C341.726 140.895 341.621 141.151 341.411 141.355C341.201 141.559 340.942 141.66 340.633 141.66ZM344.598 154.507H345.69C346.147 154.507 346.455 154.297 346.616 153.878L346.986 152.934L342.784 143.252H344.376L347.745 151.175L350.725 143.252H352.224L347.967 154.248C347.56 155.321 346.894 155.858 345.968 155.858H344.598V154.507ZM359.336 151.212C358.966 151.693 358.494 152.06 357.92 152.313C357.346 152.566 356.708 152.693 356.004 152.693C354.968 152.693 354.147 152.446 353.543 151.952C352.938 151.459 352.636 150.792 352.636 149.953C352.636 149.102 352.962 148.429 353.616 147.936C354.271 147.442 355.171 147.195 356.319 147.195H359.318V146.677C359.318 145.974 359.092 145.424 358.642 145.029C358.191 144.634 357.559 144.437 356.745 144.437C356.091 144.437 355.526 144.573 355.051 144.844C354.576 145.116 354.221 145.498 353.987 145.992L352.765 145.363C353.073 144.671 353.595 144.116 354.329 143.696C355.063 143.277 355.912 143.067 356.874 143.067C357.639 143.067 358.318 143.212 358.91 143.502C359.503 143.792 359.959 144.202 360.28 144.733C360.601 145.264 360.762 145.875 360.762 146.566V152.508H359.336V151.212ZM354.153 149.897C354.153 150.379 354.329 150.746 354.681 150.999C355.033 151.252 355.523 151.379 356.152 151.379C357.103 151.379 357.868 151.119 358.448 150.601C359.028 150.083 359.318 149.391 359.318 148.528V148.509H356.375C355.622 148.509 355.063 148.62 354.7 148.842C354.335 149.065 354.153 149.416 354.153 149.897ZM366.244 152.508C364.702 152.508 363.93 151.743 363.93 150.212V144.604H362.024V143.252H363.949V140.846H365.393V143.252H368.373V144.604H365.393V150.175C365.393 150.496 365.479 150.74 365.652 150.907C365.825 151.073 366.071 151.156 366.392 151.156H368.021V152.508H366.244ZM371.468 139.458V152.508H369.987V139.458H371.468ZM380.06 151.212C379.69 151.693 379.218 152.06 378.644 152.313C378.07 152.566 377.432 152.693 376.728 152.693C375.692 152.693 374.871 152.446 374.267 151.952C373.662 151.459 373.359 150.792 373.359 149.953C373.359 149.102 373.686 148.429 374.34 147.936C374.994 147.442 375.896 147.195 377.043 147.195H380.042V146.677C380.042 145.974 379.816 145.424 379.366 145.029C378.915 144.634 378.283 144.437 377.469 144.437C376.815 144.437 376.25 144.573 375.775 144.844C375.3 145.116 374.945 145.498 374.711 145.992L373.489 145.363C373.797 144.671 374.319 144.116 375.053 143.696C375.787 143.277 376.636 143.067 377.598 143.067C378.363 143.067 379.042 143.212 379.634 143.502C380.227 143.792 380.683 144.202 381.004 144.733C381.325 145.264 381.485 145.875 381.485 146.566V152.508H380.06V151.212ZM374.877 149.897C374.877 150.379 375.053 150.746 375.404 150.999C375.756 151.252 376.247 151.379 376.876 151.379C377.826 151.379 378.592 151.119 379.172 150.601C379.751 150.083 380.042 149.391 380.042 148.528V148.509H377.098C376.346 148.509 375.787 148.62 375.423 148.842C375.059 149.065 374.877 149.416 374.877 149.897ZM383.859 143.252H385.302V144.567C385.66 144.11 386.077 143.758 386.552 143.512C387.027 143.265 387.548 143.141 388.116 143.141L388.986 143.16V144.585H387.949C387.11 144.585 386.465 144.838 386.015 145.344C385.565 145.85 385.339 146.578 385.339 147.528V152.508H383.859V143.252ZM391.951 143.252V152.508H390.489V143.252H391.951ZM391.211 141.66C390.902 141.66 390.643 141.559 390.433 141.355C390.223 141.151 390.118 140.895 390.118 140.587C390.118 140.278 390.223 140.019 390.433 139.81C390.643 139.599 390.902 139.495 391.211 139.495C391.519 139.495 391.778 139.599 391.988 139.81C392.198 140.019 392.302 140.278 392.302 140.587C392.302 140.895 392.198 141.151 391.988 141.355C391.778 141.559 391.519 141.66 391.211 141.66ZM399.877 148.694C399.877 149.521 400.093 150.166 400.525 150.629C400.957 151.092 401.561 151.323 402.339 151.323C403.165 151.323 403.835 151.045 404.347 150.49C404.859 149.935 405.115 149.213 405.115 148.324V143.252H406.596V152.508H405.152V151.175C404.795 151.656 404.344 152.029 403.801 152.295C403.259 152.56 402.647 152.693 401.969 152.693C400.834 152.693 399.951 152.344 399.322 151.647C398.693 150.95 398.378 149.972 398.378 148.713V143.252H399.877V148.694ZM413.282 152.693C412.344 152.693 411.505 152.489 410.765 152.082C410.025 151.675 409.447 151.104 409.034 150.37C408.62 149.636 408.414 148.806 408.414 147.88C408.414 146.967 408.624 146.143 409.043 145.409C409.463 144.675 410.043 144.101 410.783 143.687C411.524 143.274 412.357 143.067 413.282 143.067C414.257 143.067 415.102 143.283 415.818 143.715C416.534 144.147 417.07 144.764 417.429 145.566L416.096 146.195C415.849 145.64 415.479 145.208 414.985 144.9C414.491 144.591 413.918 144.437 413.264 144.437C412.622 144.437 412.048 144.582 411.542 144.872C411.036 145.162 410.645 145.566 410.367 146.084C410.089 146.603 409.95 147.195 409.95 147.862C409.95 148.515 410.095 149.108 410.385 149.638C410.675 150.169 411.077 150.583 411.588 150.879C412.1 151.175 412.684 151.323 413.338 151.323C413.992 151.323 414.568 151.175 415.068 150.879C415.568 150.583 415.941 150.169 416.188 149.638L417.465 150.212C417.107 150.99 416.558 151.597 415.818 152.036C415.078 152.474 414.232 152.693 413.282 152.693ZM425.872 147.065C425.872 146.239 425.657 145.594 425.225 145.131C424.793 144.668 424.188 144.437 423.411 144.437C422.584 144.437 421.914 144.715 421.402 145.27C420.89 145.825 420.634 146.547 420.634 147.435V152.508H419.154V139.458H420.634V144.548C420.992 144.079 421.439 143.715 421.976 143.456C422.513 143.197 423.114 143.067 423.781 143.067C424.916 143.067 425.799 143.416 426.428 144.113C427.057 144.811 427.372 145.788 427.372 147.047V152.508H425.872V147.065ZM431.096 148.694C431.096 149.521 431.312 150.166 431.744 150.629C432.176 151.092 432.781 151.323 433.558 151.323C434.385 151.323 435.055 151.045 435.567 150.49C436.078 149.935 436.335 149.213 436.335 148.324V143.252H437.815V152.508H436.372V151.175C436.014 151.656 435.563 152.029 435.02 152.295C434.477 152.56 433.867 152.693 433.188 152.693C432.052 152.693 431.17 152.344 430.541 151.647C429.911 150.95 429.596 149.972 429.596 148.713V143.252H431.096V148.694ZM446.907 147.065C446.907 146.239 446.692 145.594 446.26 145.131C445.828 144.668 445.223 144.437 444.445 144.437C443.618 144.437 442.95 144.715 442.437 145.27C441.925 145.825 441.669 146.547 441.669 147.435V152.508H440.188V143.252H441.632V144.585C441.99 144.104 442.44 143.73 442.984 143.465C443.526 143.2 444.137 143.067 444.816 143.067C445.951 143.067 446.834 143.416 447.463 144.113C448.092 144.811 448.407 145.788 448.407 147.047V152.508H446.907V147.065ZM497.033 39.0523H475.943L461.735 74.0458L454.488 39.0523H433.4L405.246 124.303H426.335L441.315 76.9281L451.078 124.303H462.445L481.606 76.9281L487.188 124.303H508.277L497.033 39.0523ZM372.339 38.4843C348.529 38.4843 327.238 57.8479 324.883 81.6574C322.508 105.466 339.964 124.851 363.773 124.851C387.583 124.851 408.875 105.466 411.229 81.6574C413.604 57.8479 396.148 38.4843 372.339 38.4843ZM391.074 81.6574C389.816 94.3637 378.469 104.695 365.783 104.695C353.077 104.695 343.78 94.3637 345.038 81.6574C346.297 68.971 357.643 58.6397 370.33 58.6397C383.036 58.6397 392.332 68.971 391.074 81.6574ZM282.11 39.0523H255.865L247.421 124.303H273.667C297.171 124.303 318.18 105.183 320.514 81.6774C322.848 58.173 305.615 39.0523 282.11 39.0523ZM300.358 81.6774C299.12 94.0592 288.058 104.147 275.656 104.147H269.566L274.032 59.2078H280.121C292.503 59.2078 301.596 69.2961 300.358 81.6774ZM225.503 81.6574C224.245 94.3637 212.899 104.695 200.213 104.695C187.506 104.695 178.21 94.3637 179.468 81.6574C180.727 68.971 192.073 58.6397 204.759 58.6397C217.465 58.6397 226.762 68.971 225.503 81.6574ZM90.6106 39.0418H54.1968L45.7331 124.293H65.8884H83.8925C97.9996 124.293 110.564 112.844 111.964 98.7374C112.675 91.6943 110.442 85.3005 106.261 80.6725C110.28 76.2878 112.979 70.6662 113.588 64.5558C114.989 50.4692 104.698 39.0418 90.6106 39.0418ZM84.3797 90.0903C88.9673 90.0903 92.296 93.8052 91.8496 98.3727C91.4029 102.939 87.3228 106.654 82.7356 106.654H67.6342L72.607 56.6804H85.9634C90.5098 56.6804 93.8587 60.3745 93.392 64.9417C92.9452 69.5089 88.8857 73.2026 84.3189 73.2026H74.0277L72.3635 90.0903H84.3797Z" fill="url(#paint0_linear_2001_10539)"/>
<defs>
<linearGradient id="paint0_linear_2001_10539" x1="190.462" y1="221.601" x2="376.915" y2="-77.7425" gradientUnits="userSpaceOnUse">
<stop stop-color="#8F032D"/>
<stop offset="1" stop-color="#ED3752"/>
</linearGradient>
</defs>
</svg>
