<svg width="397" height="125" viewBox="0 0 397 125" fill="none" xmlns="http://www.w3.org/2000/svg">
<path fill-rule="evenodd" clip-rule="evenodd" d="M87.7999 43.2572C69.4273 16.7253 32.4324 -2.47822 12.6802 11.2101C-7.0723 24.8984 -2.10258 66.2952 16.2701 92.8271C44.7435 133.945 116.265 84.3637 87.7999 43.2572Z" fill="#003333"/>
<path fill-rule="evenodd" clip-rule="evenodd" d="M102.587 108.601C128.375 77.6624 139.144 26.7692 116.098 7.57414C93.0532 -11.6213 44.921 8.15054 19.1329 39.0886C-20.8325 87.036 62.6333 156.535 102.587 108.601Z" fill="white"/>
<path d="M166.484 29.3916C148.3 29.3916 132.039 44.1806 130.24 62.3647C128.427 80.5487 141.758 95.3531 159.942 95.3531C178.126 95.3531 194.388 80.5487 196.186 62.3647C198 44.1806 184.668 29.3916 166.484 29.3916ZM180.793 62.3647C179.831 72.069 171.166 79.9595 161.477 79.9595C151.773 79.9595 144.673 72.069 145.634 62.3647C146.595 52.6759 155.261 44.7855 164.95 44.7855C174.654 44.7855 181.754 52.6759 180.793 62.3647Z" fill="white"/>
<path d="M224.025 29.8262H203.981L197.532 94.935H217.577C235.528 94.935 251.572 80.3319 253.355 62.3803C255.138 44.429 241.976 29.8262 224.025 29.8262ZM237.962 62.3803C237.016 71.8366 228.567 79.5408 219.095 79.5408H214.445L217.855 45.2195H222.506C231.962 45.2195 238.907 52.9239 237.962 62.3803Z" fill="white"/>
<path d="M292.936 29.3916C274.752 29.3916 258.49 44.1806 256.692 62.3647C254.878 80.5487 268.21 95.3531 286.394 95.3531C304.578 95.3531 320.84 80.5487 322.638 62.3647C324.451 44.1806 311.12 29.3916 292.936 29.3916ZM307.244 62.3647C306.283 72.069 297.618 79.9595 287.929 79.9595C278.225 79.9595 271.124 72.069 272.085 62.3647C273.047 52.6759 281.712 44.7855 291.401 44.7855C301.105 44.7855 308.205 52.6759 307.244 62.3647Z" fill="white"/>
<path d="M388.169 29.8262H372.062L361.21 56.5515L355.676 29.8262H339.569L318.068 94.935H334.175L345.615 58.7528L353.072 94.935H361.753L376.387 58.7528L380.65 94.935H396.756L388.169 29.8262Z" fill="white"/>
<path d="M77.7706 29.8184H49.9601L43.4956 94.9274H58.8892H72.6396C83.4135 94.9274 93.0097 86.1843 94.0789 75.41C94.6217 70.031 92.9163 65.1479 89.723 61.6133C92.7924 58.2646 94.8544 53.9707 95.3189 49.3045C96.3889 38.546 88.5294 29.8184 77.7706 29.8184ZM73.0118 68.8059C76.5154 68.8059 79.0575 71.6429 78.7166 75.131C78.3753 78.6187 75.2594 81.4561 71.7558 81.4561H60.2227L64.0203 43.2897H74.2209C77.6935 43.2897 80.251 46.1111 79.8946 49.5988C79.5533 53.087 76.453 55.9083 72.9653 55.9083H65.1055L63.8343 68.8059H73.0118Z" fill="#9E0231"/>
<path d="M131.557 106.58V110.934H136.957V106.58H138.173V116.476H136.957V112.065H131.557V116.476H130.341V106.58H131.557ZM144.863 115.486C144.58 115.853 144.22 116.134 143.781 116.327C143.343 116.52 142.855 116.617 142.318 116.617C141.526 116.617 140.9 116.428 140.438 116.051C139.976 115.675 139.745 115.166 139.745 114.525C139.745 113.875 139.995 113.361 140.494 112.984C140.994 112.606 141.682 112.418 142.559 112.418H144.849V112.022C144.849 111.485 144.677 111.066 144.333 110.764C143.988 110.463 143.506 110.312 142.884 110.312C142.384 110.312 141.953 110.415 141.59 110.623C141.227 110.83 140.956 111.122 140.777 111.499L139.844 111.019C140.08 110.491 140.478 110.067 141.039 109.746C141.599 109.426 142.248 109.266 142.983 109.266C143.567 109.266 144.085 109.376 144.538 109.598C144.99 109.819 145.339 110.133 145.584 110.538C145.829 110.943 145.951 111.41 145.951 111.937V116.476H144.863V115.486ZM140.904 114.482C140.904 114.849 141.039 115.13 141.307 115.323C141.576 115.516 141.95 115.613 142.431 115.613C143.157 115.613 143.741 115.415 144.184 115.02C144.627 114.623 144.849 114.095 144.849 113.436V113.422H142.601C142.026 113.422 141.599 113.507 141.322 113.676C141.043 113.846 140.904 114.115 140.904 114.482ZM148.089 118.002H148.923C149.272 118.002 149.507 117.842 149.63 117.522L149.912 116.801L146.703 109.407H147.919L150.492 115.458L152.768 109.407H153.913L150.662 117.804C150.351 118.624 149.842 119.035 149.135 119.035H148.089V118.002ZM157.987 116.617C157.281 116.617 156.64 116.459 156.065 116.143C155.49 115.828 155.04 115.392 154.715 114.836C154.39 114.28 154.227 113.662 154.227 112.984C154.227 112.314 154.392 111.695 154.722 111.125C155.052 110.554 155.507 110.102 156.086 109.767C156.666 109.433 157.309 109.266 158.016 109.266C158.723 109.266 159.364 109.424 159.938 109.739C160.513 110.055 160.963 110.491 161.289 111.047C161.614 111.603 161.776 112.22 161.776 112.899C161.776 113.568 161.609 114.188 161.274 114.758C160.94 115.328 160.483 115.78 159.903 116.115C159.324 116.449 158.685 116.617 157.987 116.617ZM158.001 115.557C158.51 115.557 158.963 115.446 159.359 115.224C159.755 115.003 160.061 114.694 160.278 114.298C160.494 113.902 160.603 113.45 160.603 112.941C160.603 112.433 160.494 111.98 160.278 111.584C160.061 111.188 159.755 110.879 159.359 110.658C158.963 110.437 158.51 110.326 158.001 110.326C157.493 110.326 157.04 110.437 156.645 110.658C156.248 110.879 155.942 111.188 155.725 111.584C155.509 111.98 155.4 112.433 155.4 112.941C155.4 113.45 155.509 113.902 155.725 114.298C155.942 114.694 156.248 115.003 156.645 115.224C157.04 115.446 157.493 115.557 158.001 115.557ZM165.44 116.476C164.262 116.476 163.673 115.891 163.673 114.722V110.439H162.217V109.407H163.687V107.569H164.79V109.407H167.066V110.439H164.79V114.694C164.79 114.939 164.856 115.125 164.988 115.253C165.12 115.38 165.308 115.443 165.553 115.443H166.797V116.476H165.44ZM173.431 112.319C173.431 111.688 173.266 111.195 172.936 110.842C172.606 110.488 172.144 110.312 171.55 110.312C170.919 110.312 170.408 110.524 170.017 110.948C169.625 111.372 169.43 111.923 169.43 112.602V116.476H168.299V109.407H169.402V110.425C169.675 110.057 170.019 109.772 170.433 109.57C170.848 109.367 171.315 109.266 171.833 109.266C172.7 109.266 173.374 109.532 173.855 110.064C174.335 110.597 174.576 111.344 174.576 112.305V116.476H173.431V112.319ZM177.491 109.407V116.476H176.374V109.407H177.491ZM176.925 108.191C176.689 108.191 176.492 108.113 176.331 107.958C176.171 107.802 176.091 107.607 176.091 107.371C176.091 107.135 176.171 106.937 176.331 106.777C176.492 106.617 176.689 106.537 176.925 106.537C177.161 106.537 177.359 106.617 177.519 106.777C177.679 106.937 177.759 107.135 177.759 107.371C177.759 107.607 177.679 107.802 177.519 107.958C177.359 108.113 177.161 108.191 176.925 108.191ZM184.477 112.319C184.477 111.688 184.312 111.195 183.982 110.842C183.652 110.488 183.19 110.312 182.597 110.312C181.965 110.312 181.454 110.524 181.063 110.948C180.672 111.372 180.476 111.923 180.476 112.602V116.476H179.345V109.407H180.448V110.425C180.721 110.057 181.065 109.772 181.48 109.57C181.895 109.367 182.361 109.266 182.88 109.266C183.746 109.266 184.421 109.532 184.901 110.064C185.382 110.597 185.622 111.344 185.622 112.305V116.476H184.477V112.319ZM190.658 119.176C189.932 119.176 189.286 119.036 188.721 118.759C188.155 118.48 187.717 118.082 187.406 117.564L188.311 117.013C188.527 117.38 188.836 117.661 189.237 117.854C189.637 118.047 190.106 118.144 190.644 118.144C191.435 118.144 192.052 117.948 192.495 117.557C192.938 117.166 193.16 116.631 193.16 115.952V115.02C192.83 115.387 192.437 115.675 191.979 115.882C191.522 116.089 191.03 116.193 190.502 116.193C189.833 116.193 189.23 116.044 188.693 115.748C188.155 115.451 187.731 115.041 187.42 114.517C187.109 113.995 186.954 113.413 186.954 112.772C186.954 112.14 187.111 111.556 187.427 111.019C187.743 110.481 188.172 110.055 188.714 109.739C189.256 109.424 189.856 109.266 190.516 109.266C191.044 109.266 191.536 109.362 191.994 109.555C192.451 109.749 192.839 110.02 193.16 110.368V109.407H194.262V115.924C194.262 116.555 194.117 117.117 193.824 117.607C193.532 118.097 193.113 118.48 192.566 118.759C192.019 119.036 191.383 119.176 190.658 119.176ZM190.658 115.175C191.412 115.175 192.024 114.951 192.495 114.503C192.967 114.056 193.202 113.474 193.202 112.757C193.202 112.032 192.967 111.445 192.495 110.998C192.024 110.55 191.412 110.326 190.658 110.326C189.904 110.326 189.289 110.55 188.813 110.998C188.337 111.445 188.099 112.032 188.099 112.757C188.099 113.474 188.337 114.056 188.813 114.503C189.289 114.951 189.904 115.175 190.658 115.175ZM202.988 109.266C203.647 109.266 204.246 109.424 204.783 109.739C205.32 110.055 205.744 110.491 206.055 111.047C206.366 111.603 206.522 112.22 206.522 112.899C206.522 113.568 206.366 114.188 206.055 114.758C205.744 115.328 205.316 115.78 204.769 116.115C204.222 116.449 203.619 116.617 202.96 116.617C202.413 116.617 201.911 116.513 201.454 116.306C200.997 116.099 200.603 115.807 200.273 115.429V116.476H199.185V106.509H200.302V110.496C200.631 110.109 201.027 109.808 201.489 109.591C201.951 109.374 202.45 109.266 202.988 109.266ZM202.818 110.326C202.055 110.326 201.435 110.568 200.959 111.054C200.483 111.539 200.245 112.168 200.245 112.941C200.245 113.714 200.483 114.343 200.959 114.828C201.435 115.314 202.055 115.557 202.818 115.557C203.318 115.557 203.76 115.446 204.147 115.224C204.533 115.003 204.835 114.694 205.052 114.298C205.269 113.902 205.377 113.45 205.377 112.941C205.377 112.433 205.269 111.98 205.052 111.584C204.835 111.188 204.533 110.879 204.147 110.658C203.76 110.437 203.318 110.326 202.818 110.326ZM212.66 115.486C212.377 115.853 212.017 116.134 211.579 116.327C211.14 116.52 210.653 116.617 210.116 116.617C209.324 116.617 208.697 116.428 208.235 116.051C207.774 115.675 207.543 115.166 207.543 114.525C207.543 113.875 207.792 113.361 208.292 112.984C208.791 112.606 209.479 112.418 210.356 112.418H212.646V112.022C212.646 111.485 212.474 111.066 212.13 110.764C211.786 110.463 211.303 110.312 210.681 110.312C210.182 110.312 209.75 110.415 209.387 110.623C209.025 110.83 208.754 111.122 208.574 111.499L207.642 111.019C207.877 110.491 208.275 110.067 208.836 109.746C209.397 109.426 210.045 109.266 210.78 109.266C211.364 109.266 211.883 109.376 212.335 109.598C212.788 109.819 213.136 110.133 213.381 110.538C213.626 110.943 213.749 111.41 213.749 111.937V116.476H212.66V115.486ZM208.702 114.482C208.702 114.849 208.836 115.13 209.105 115.323C209.373 115.516 209.748 115.613 210.228 115.613C210.954 115.613 211.539 115.415 211.982 115.02C212.425 114.623 212.646 114.095 212.646 113.436V113.422H210.398C209.823 113.422 209.397 113.507 209.119 113.676C208.841 113.846 208.702 114.115 208.702 114.482ZM215.561 109.407H216.664V110.411C216.937 110.062 217.255 109.793 217.618 109.605C217.981 109.416 218.379 109.322 218.812 109.322L219.477 109.336V110.425H218.685C218.044 110.425 217.552 110.618 217.208 111.005C216.864 111.391 216.692 111.947 216.692 112.673V116.476H215.561V109.407ZM223.735 116.617C223.019 116.617 222.378 116.461 221.812 116.15C221.247 115.839 220.806 115.404 220.49 114.843C220.175 114.282 220.017 113.648 220.017 112.941C220.017 112.244 220.177 111.615 220.498 111.054C220.818 110.493 221.261 110.055 221.827 109.739C222.392 109.424 223.028 109.266 223.735 109.266C224.48 109.266 225.125 109.43 225.672 109.76C226.218 110.09 226.629 110.561 226.902 111.174L225.884 111.655C225.695 111.231 225.413 110.901 225.036 110.665C224.659 110.429 224.221 110.312 223.721 110.312C223.231 110.312 222.793 110.423 222.406 110.644C222.02 110.866 221.72 111.174 221.508 111.57C221.296 111.966 221.19 112.418 221.19 112.927C221.19 113.426 221.301 113.879 221.523 114.284C221.744 114.69 222.05 115.005 222.441 115.231C222.833 115.458 223.278 115.571 223.778 115.571C224.277 115.571 224.718 115.458 225.099 115.231C225.481 115.005 225.766 114.69 225.955 114.284L226.93 114.722C226.657 115.316 226.237 115.78 225.672 116.115C225.106 116.449 224.461 116.617 223.735 116.617ZM233.351 112.319C233.351 111.688 233.186 111.195 232.856 110.842C232.526 110.488 232.064 110.312 231.47 110.312C230.839 110.312 230.328 110.524 229.937 110.948C229.545 111.372 229.35 111.923 229.35 112.602V116.476H228.219V106.509H229.35V110.396C229.623 110.038 229.965 109.76 230.375 109.562C230.785 109.365 231.244 109.266 231.753 109.266C232.62 109.266 233.294 109.532 233.775 110.064C234.256 110.597 234.496 111.344 234.496 112.305V116.476H233.351V112.319ZM241.002 115.486C240.719 115.853 240.359 116.134 239.92 116.327C239.482 116.52 238.994 116.617 238.457 116.617C237.665 116.617 237.038 116.428 236.577 116.051C236.115 115.675 235.884 115.166 235.884 114.525C235.884 113.875 236.134 113.361 236.633 112.984C237.133 112.606 237.821 112.418 238.698 112.418H240.988V112.022C240.988 111.485 240.816 111.066 240.472 110.764C240.127 110.463 239.645 110.312 239.022 110.312C238.523 110.312 238.092 110.415 237.729 110.623C237.366 110.83 237.095 111.122 236.916 111.499L235.983 111.019C236.219 110.491 236.617 110.067 237.178 109.746C237.738 109.426 238.386 109.266 239.121 109.266C239.706 109.266 240.224 109.376 240.677 109.598C241.129 109.819 241.478 110.133 241.723 110.538C241.968 110.943 242.09 111.41 242.09 111.937V116.476H241.002V115.486ZM237.043 114.482C237.043 114.849 237.178 115.13 237.446 115.323C237.715 115.516 238.089 115.613 238.57 115.613C239.296 115.613 239.88 115.415 240.323 115.02C240.766 114.623 240.988 114.095 240.988 113.436V113.422H238.74C238.165 113.422 237.738 113.507 237.46 113.676C237.182 113.846 237.043 114.115 237.043 114.482ZM246.235 109.407H247.451L249.882 115.26L252.3 109.407H253.473L250.49 116.476H249.218L246.235 109.407ZM258.904 115.486C258.622 115.853 258.262 116.134 257.823 116.327C257.385 116.52 256.897 116.617 256.36 116.617C255.568 116.617 254.942 116.428 254.48 116.051C254.018 115.675 253.787 115.166 253.787 114.525C253.787 113.875 254.037 113.361 254.536 112.984C255.036 112.606 255.724 112.418 256.6 112.418H258.89V112.022C258.89 111.485 258.719 111.066 258.375 110.764C258.03 110.463 257.548 110.312 256.926 110.312C256.426 110.312 255.995 110.415 255.632 110.623C255.269 110.83 254.998 111.122 254.819 111.499L253.886 111.019C254.121 110.491 254.52 110.067 255.081 109.746C255.641 109.426 256.289 109.266 257.025 109.266C257.609 109.266 258.127 109.376 258.579 109.598C259.032 109.819 259.381 110.133 259.626 110.538C259.871 110.943 259.993 111.41 259.993 111.937V116.476H258.904V115.486ZM254.946 114.482C254.946 114.849 255.081 115.13 255.349 115.323C255.618 115.516 255.992 115.613 256.473 115.613C257.199 115.613 257.783 115.415 258.226 115.02C258.669 114.623 258.89 114.095 258.89 113.436V113.422H256.643C256.068 113.422 255.641 113.507 255.363 113.676C255.085 113.846 254.946 114.115 254.946 114.482ZM265.411 110.439H261.325V109.407H266.753V110.354L262.484 115.443H266.881V116.476H261.141V115.528L265.411 110.439ZM269.287 109.407V116.476H268.17V109.407H269.287ZM268.721 108.191C268.486 108.191 268.288 108.113 268.128 107.958C267.967 107.802 267.887 107.607 267.887 107.371C267.887 107.135 267.967 106.937 268.128 106.777C268.288 106.617 268.486 106.537 268.721 106.537C268.957 106.537 269.154 106.617 269.315 106.777C269.475 106.937 269.555 107.135 269.555 107.371C269.555 107.607 269.475 107.802 269.315 107.958C269.154 108.113 268.957 108.191 268.721 108.191ZM271.749 118.002H272.583C272.932 118.002 273.168 117.842 273.29 117.522L273.573 116.801L270.364 109.407H271.58L274.153 115.458L276.429 109.407H277.574L274.322 117.804C274.011 118.624 273.503 119.035 272.795 119.035H271.749V118.002ZM283.005 115.486C282.723 115.853 282.362 116.134 281.924 116.327C281.486 116.52 280.998 116.617 280.461 116.617C279.669 116.617 279.042 116.428 278.58 116.051C278.118 115.675 277.888 115.166 277.888 114.525C277.888 113.875 278.137 113.361 278.637 112.984C279.136 112.606 279.824 112.418 280.701 112.418H282.991V112.022C282.991 111.485 282.819 111.066 282.475 110.764C282.131 110.463 281.648 110.312 281.026 110.312C280.527 110.312 280.095 110.415 279.732 110.623C279.37 110.83 279.099 111.122 278.919 111.499L277.986 111.019C278.222 110.491 278.62 110.067 279.181 109.746C279.742 109.426 280.39 109.266 281.125 109.266C281.709 109.266 282.228 109.376 282.68 109.598C283.132 109.819 283.481 110.133 283.726 110.538C283.971 110.943 284.094 111.41 284.094 111.937V116.476H283.005V115.486ZM279.047 114.482C279.047 114.849 279.181 115.13 279.45 115.323C279.718 115.516 280.093 115.613 280.574 115.613C281.299 115.613 281.884 115.415 282.327 115.02C282.77 114.623 282.991 114.095 282.991 113.436V113.422H280.743C280.168 113.422 279.742 113.507 279.464 113.676C279.186 113.846 279.047 114.115 279.047 114.482ZM288.281 116.476C287.103 116.476 286.514 115.891 286.514 114.722V110.439H285.058V109.407H286.528V107.569H287.631V109.407H289.907V110.439H287.631V114.694C287.631 114.939 287.697 115.125 287.829 115.253C287.961 115.38 288.149 115.443 288.394 115.443H289.638V116.476H288.281ZM292.27 106.509V116.476H291.14V106.509H292.27ZM298.833 115.486C298.55 115.853 298.19 116.134 297.751 116.327C297.313 116.52 296.825 116.617 296.288 116.617C295.496 116.617 294.87 116.428 294.408 116.051C293.946 115.675 293.715 115.166 293.715 114.525C293.715 113.875 293.965 113.361 294.464 112.984C294.964 112.606 295.652 112.418 296.528 112.418H298.818V112.022C298.818 111.485 298.647 111.066 298.303 110.764C297.959 110.463 297.476 110.312 296.854 110.312C296.354 110.312 295.923 110.415 295.56 110.623C295.197 110.83 294.926 111.122 294.747 111.499L293.814 111.019C294.05 110.491 294.448 110.067 295.009 109.746C295.569 109.426 296.217 109.266 296.953 109.266C297.537 109.266 298.055 109.376 298.507 109.598C298.96 109.819 299.309 110.133 299.554 110.538C299.799 110.943 299.921 111.41 299.921 111.937V116.476H298.833V115.486ZM294.875 114.482C294.875 114.849 295.009 115.13 295.277 115.323C295.546 115.516 295.92 115.613 296.401 115.613C297.127 115.613 297.711 115.415 298.154 115.02C298.597 114.623 298.818 114.095 298.818 113.436V113.422H296.571C295.996 113.422 295.569 113.507 295.292 113.676C295.013 113.846 294.875 114.115 294.875 114.482ZM301.734 109.407H302.836V110.411C303.109 110.062 303.428 109.793 303.79 109.605C304.153 109.416 304.552 109.322 304.985 109.322L305.65 109.336V110.425H304.858C304.217 110.425 303.724 110.618 303.38 111.005C303.036 111.391 302.864 111.947 302.864 112.673V116.476H301.734V109.407ZM307.914 109.407V116.476H306.797V109.407H307.914ZM307.349 108.191C307.113 108.191 306.915 108.113 306.755 107.958C306.594 107.802 306.515 107.607 306.515 107.371C306.515 107.135 306.594 106.937 306.755 106.777C306.915 106.617 307.113 106.537 307.349 106.537C307.584 106.537 307.782 106.617 307.942 106.777C308.103 106.937 308.183 107.135 308.183 107.371C308.183 107.607 308.103 107.802 307.942 107.958C307.782 108.113 307.584 108.191 307.349 108.191ZM313.968 113.564C313.968 114.195 314.132 114.687 314.462 115.041C314.792 115.394 315.254 115.571 315.848 115.571C316.479 115.571 316.99 115.359 317.382 114.934C317.773 114.51 317.968 113.959 317.968 113.281V109.407H319.099V116.476H317.997V115.458C317.723 115.825 317.379 116.111 316.964 116.313C316.55 116.516 316.083 116.617 315.565 116.617C314.698 116.617 314.024 116.351 313.543 115.818C313.063 115.286 312.822 114.539 312.822 113.577V109.407H313.968V113.564ZM324.206 116.617C323.489 116.617 322.848 116.461 322.282 116.15C321.717 115.839 321.276 115.404 320.961 114.843C320.645 114.282 320.487 113.648 320.487 112.941C320.487 112.244 320.648 111.615 320.968 111.054C321.289 110.493 321.732 110.055 322.297 109.739C322.862 109.424 323.499 109.266 324.206 109.266C324.95 109.266 325.596 109.43 326.142 109.76C326.689 110.09 327.099 110.561 327.372 111.174L326.354 111.655C326.166 111.231 325.883 110.901 325.506 110.665C325.129 110.429 324.691 110.312 324.191 110.312C323.701 110.312 323.263 110.423 322.876 110.644C322.49 110.866 322.191 111.174 321.979 111.57C321.767 111.966 321.661 112.418 321.661 112.927C321.661 113.426 321.771 113.879 321.993 114.284C322.214 114.69 322.521 115.005 322.912 115.231C323.303 115.458 323.748 115.571 324.248 115.571C324.747 115.571 325.188 115.458 325.57 115.231C325.951 115.005 326.237 114.69 326.425 114.284L327.4 114.722C327.127 115.316 326.708 115.78 326.142 116.115C325.577 116.449 324.931 116.617 324.206 116.617ZM333.821 112.319C333.821 111.688 333.656 111.195 333.326 110.842C332.997 110.488 332.535 110.312 331.941 110.312C331.31 110.312 330.798 110.524 330.407 110.948C330.016 111.372 329.82 111.923 329.82 112.602V116.476H328.69V106.509H329.82V110.396C330.094 110.038 330.436 109.76 330.845 109.562C331.256 109.365 331.715 109.266 332.224 109.266C333.091 109.266 333.765 109.532 334.246 110.064C334.726 110.597 334.966 111.344 334.966 112.305V116.476H333.821V112.319ZM337.811 113.564C337.811 114.195 337.975 114.687 338.305 115.041C338.635 115.394 339.097 115.571 339.691 115.571C340.322 115.571 340.833 115.359 341.225 114.934C341.616 114.51 341.811 113.959 341.811 113.281V109.407H342.943V116.476H341.84V115.458C341.566 115.825 341.222 116.111 340.807 116.313C340.393 116.516 339.926 116.617 339.408 116.617C338.541 116.617 337.867 116.351 337.386 115.818C336.906 115.286 336.665 114.539 336.665 113.577V109.407H337.811V113.564ZM349.886 112.319C349.886 111.688 349.721 111.195 349.392 110.842C349.062 110.488 348.6 110.312 348.006 110.312C347.374 110.312 346.863 110.524 346.472 110.948C346.081 111.372 345.885 111.923 345.885 112.602V116.476H344.754V109.407H345.857V110.425C346.131 110.057 346.474 109.772 346.889 109.57C347.304 109.367 347.77 109.266 348.289 109.266C349.156 109.266 349.83 109.532 350.31 110.064C350.791 110.597 351.031 111.344 351.031 112.305V116.476H349.886V112.319Z" fill="white"/>
</svg>
